<svg width="16" height="16" viewBox="0 0 16 16" fill="none" xmlns="http://www.w3.org/2000/svg">
<g clip-path="url(#clip0_1116_108)">
<path d="M8 4.25C6.05859 4.25 4.5 5.83594 4.5 7.75C4.5 9.69141 6.05859 11.25 8 11.25C9.91406 11.25 11.5 9.69141 11.5 7.77734C11.5 5.83594 9.91406 4.25 8 4.25ZM8 10.375C6.55078 10.375 5.375 9.19922 5.375 7.75C5.375 6.32812 6.55078 5.125 8 5.125C9.42188 5.125 10.625 6.32812 10.625 7.77734C10.625 9.19922 9.42188 10.375 8 10.375ZM15.7656 7.28516C14.2891 3.92188 11.3359 1.625 8 1.625C4.63672 1.625 1.68359 3.92188 0.207031 7.28516C0.152344 7.42188 0.125 7.61328 0.125 7.75C0.125 7.88672 0.152344 8.10547 0.207031 8.24219C1.68359 11.6055 4.63672 13.875 8 13.875C11.3359 13.875 14.2891 11.6055 15.7656 8.24219C15.8203 8.10547 15.875 7.88672 15.875 7.75C15.875 7.61328 15.8203 7.42188 15.7656 7.28516ZM14.9727 7.88672C13.5781 11.0312 10.8984 13 8 13C5.07422 13 2.39453 11.0586 1.02734 7.88672C1 7.85938 1 7.77734 0.972656 7.77734C0.972656 7.75 0.972656 7.66797 0.972656 7.64062C2.39453 4.46875 5.07422 2.5 8 2.5C10.8984 2.5 13.5781 4.46875 14.9727 7.64062C14.9727 7.66797 14.9727 7.75 14.9727 7.75C14.9727 7.77734 14.9727 7.85938 14.9727 7.88672Z" fill="#6B7280"/>
</g>
<defs>
<clipPath id="clip0_1116_108">
<rect width="16" height="16" fill="white"/>
</clipPath>
</defs>
</svg>
